<svg xmlns="http://www.w3.org/2000/svg" version="1.1" xmlns:xlink="http://www.w3.org/1999/xlink" xmlns:svgjs="http://svgjs.dev/svgjs" width="864" height="336" preserveAspectRatio="none" viewBox="0 0 864 336">
    <g mask="url(&quot;#SvgjsMask1199&quot;)" fill="none">
        <path d="M0 -60L51.96 -30L51.96 30L0 60L-51.96 30L-51.96 -30zM51.96 30L103.93 60L103.93 120L51.96 150L0 120L0 60zM0 120L51.96 150L51.96 210L0 240L-51.96 210L-51.96 150zM51.96 210L103.93 240L103.93 300L51.96 330L0 300L0 240zM0 300L51.96 330L51.96 390L0 420L-51.96 390L-51.96 330zM103.93 -60L155.89 -30L155.89 30L103.93 60L51.96 30L51.96 -30zM155.89 30L207.85 60L207.85 120L155.89 150L103.93 120L103.93 60zM103.93 120L155.89 150L155.89 210L103.93 240L51.96 210L51.96 150zM155.89 210L207.85 240L207.85 300L155.89 330L103.93 300L103.93 240zM103.93 300L155.89 330L155.89 390L103.93 420L51.96 390L51.96 330zM207.85 -60L259.81 -30L259.81 30L207.85 60L155.89 30L155.89 -30zM259.81 30L311.78 60L311.78 120L259.81 150L207.85 120L207.85 60zM207.85 120L259.81 150L259.81 210L207.85 240L155.89 210L155.89 150zM259.81 210L311.78 240L311.78 300L259.81 330L207.85 300L207.85 240zM207.85 300L259.81 330L259.81 390L207.85 420L155.89 390L155.89 330zM311.78 -60L363.74 -30L363.74 30L311.78 60L259.81 30L259.81 -30zM363.74 30L415.7 60L415.7 120L363.74 150L311.78 120L311.78 60zM311.78 120L363.74 150L363.74 210L311.78 240L259.81 210L259.81 150zM363.74 210L415.7 240L415.7 300L363.74 330L311.78 300L311.78 240zM311.78 300L363.74 330L363.74 390L311.78 420L259.81 390L259.81 330zM415.7 -60L467.67 -30L467.67 30L415.7 60L363.74 30L363.74 -30zM467.67 30L519.63 60L519.63 120L467.67 150L415.7 120L415.7 60zM415.7 120L467.67 150L467.67 210L415.7 240L363.74 210L363.74 150zM467.67 210L519.63 240L519.63 300L467.67 330L415.7 300L415.7 240zM415.7 300L467.67 330L467.67 390L415.7 420L363.74 390L363.74 330zM519.63 -60L571.59 -30L571.59 30L519.63 60L467.67 30L467.67 -30zM571.59 30L623.56 60L623.56 120L571.59 150L519.63 120L519.63 60zM519.63 120L571.59 150L571.59 210L519.63 240L467.67 210L467.67 150zM571.59 210L623.56 240L623.56 300L571.59 330L519.63 300L519.63 240zM519.63 300L571.59 330L571.59 390L519.63 420L467.67 390L467.67 330zM623.56 -60L675.52 -30L675.52 30L623.56 60L571.59 30L571.59 -30zM675.52 30L727.48 60L727.48 120L675.52 150L623.56 120L623.56 60zM623.56 120L675.52 150L675.52 210L623.56 240L571.59 210L571.59 150zM675.52 210L727.48 240L727.48 300L675.52 330L623.56 300L623.56 240zM623.56 300L675.52 330L675.52 390L623.56 420L571.59 390L571.59 330zM727.48 -60L779.44 -30L779.44 30L727.48 60L675.52 30L675.52 -30zM779.44 30L831.41 60L831.41 120L779.44 150L727.48 120L727.48 60zM727.48 120L779.44 150L779.44 210L727.48 240L675.52 210L675.52 150zM779.44 210L831.41 240L831.41 300L779.44 330L727.48 300L727.48 240zM727.48 300L779.44 330L779.44 390L727.48 420L675.52 390L675.52 330zM831.41 -60L883.37 -30L883.37 30L831.41 60L779.45 30L779.45 -30zM883.37 30L935.33 60L935.33 120L883.37 150L831.41 120L831.41 60zM831.41 120L883.37 150L883.37 210L831.41 240L779.45 210L779.45 150zM883.37 210L935.33 240L935.33 300L883.37 330L831.41 300L831.41 240zM831.41 300L883.37 330L883.37 390L831.41 420L779.45 390L779.45 330z" stroke="rgba(5, 5, 9, 1)" stroke-width="2"></path>
        <path d="M40.38 26.45L79.35 48.95L79.35 93.95L40.38 116.45L1.41 93.95L1.41 48.95zM1.41 93.95L40.38 116.45L40.38 161.45L1.41 183.95L-37.56 161.45L-37.56 116.45zM40.38 161.45L79.35 183.95L79.35 228.95L40.38 251.45L1.41 228.95L1.41 183.95zM118.33 26.45L157.3 48.95L157.3 93.95L118.33 116.45L79.35 93.95L79.35 48.95zM79.35 93.95L118.33 116.45L118.33 161.45L79.35 183.95L40.38 161.45L40.38 116.45zM118.33 161.45L157.3 183.95L157.3 228.95L118.33 251.45L79.35 228.95L79.35 183.95zM118.33 296.45L157.3 318.95L157.3 363.95L118.33 386.45L79.35 363.95L79.35 318.95zM196.27 26.45L235.24 48.95L235.24 93.95L196.27 116.45L157.3 93.95L157.3 48.95zM157.3 228.95L196.27 251.45L196.27 296.45L157.3 318.95L118.33 296.45L118.33 251.45zM235.24 -41.05L274.22 -18.55L274.22 26.45L235.24 48.95L196.27 26.45L196.27 -18.55zM274.22 26.45L313.19 48.95L313.19 93.95L274.22 116.45L235.24 93.95L235.24 48.95zM274.22 161.45L313.19 183.95L313.19 228.95L274.22 251.45L235.24 228.95L235.24 183.95zM352.16 161.45L391.13 183.95L391.13 228.95L352.16 251.45L313.19 228.95L313.19 183.95zM313.19 228.95L352.16 251.45L352.16 296.45L313.19 318.95L274.22 296.45L274.22 251.45zM352.16 296.45L391.13 318.95L391.13 363.95L352.16 386.45L313.19 363.95L313.19 318.95zM430.1 26.45L469.08 48.95L469.08 93.95L430.1 116.45L391.13 93.95L391.13 48.95zM391.13 228.95L430.1 251.45L430.1 296.45L391.13 318.95L352.16 296.45L352.16 251.45zM430.1 296.45L469.08 318.95L469.08 363.95L430.1 386.45L391.13 363.95L391.13 318.95zM508.05 26.45L547.02 48.95L547.02 93.95L508.05 116.45L469.08 93.95L469.08 48.95zM508.05 296.45L547.02 318.95L547.02 363.95L508.05 386.45L469.08 363.95L469.08 318.95zM585.99 26.45L624.97 48.95L624.97 93.95L585.99 116.45L547.02 93.95L547.02 48.95zM547.02 228.95L585.99 251.45L585.99 296.45L547.02 318.95L508.05 296.45L508.05 251.45zM585.99 296.45L624.97 318.95L624.97 363.95L585.99 386.45L547.02 363.95L547.02 318.95zM624.97 -41.05L663.94 -18.55L663.94 26.45L624.97 48.95L585.99 26.45L585.99 -18.55zM624.97 93.95L663.94 116.45L663.94 161.45L624.97 183.95L585.99 161.45L585.99 116.45zM663.94 296.45L702.91 318.95L702.91 363.95L663.94 386.45L624.97 363.95L624.97 318.95zM702.91 93.95L741.88 116.45L741.88 161.45L702.91 183.95L663.94 161.45L663.94 116.45zM741.88 161.45L780.86 183.95L780.86 228.95L741.88 251.45L702.91 228.95L702.91 183.95zM741.88 296.45L780.86 318.95L780.86 363.95L741.88 386.45L702.91 363.95L702.91 318.95zM780.86 -41.05L819.83 -18.55L819.83 26.45L780.86 48.95L741.88 26.45L741.88 -18.55zM780.86 93.95L819.83 116.45L819.83 161.45L780.86 183.95L741.88 161.45L741.88 116.45zM819.83 296.45L858.8 318.95L858.8 363.95L819.83 386.45L780.86 363.95L780.86 318.95zM858.8 -41.05L897.77 -18.55L897.77 26.45L858.8 48.95L819.83 26.45L819.83 -18.55zM858.8 228.95L897.77 251.45L897.77 296.45L858.8 318.95L819.83 296.45L819.83 251.45z" stroke="rgba(15, 16, 28, 1)" stroke-width="2"></path>
    </g>
    <defs>
        <mask id="SvgjsMask1199">
            <rect width="864" height="336" fill="#ffffff"></rect>
        </mask>
    </defs>
</svg>