<svg xmlns="http://www.w3.org/2000/svg" width="270" height="231" preserveAspectRatio="none">
  <g fill="none" stroke-width="2">
    <path stroke="rgba(5, 5, 9, 1)" d="m0-78 67.55 39v78L0 78l-67.55-39v-78zM67.55 39l67.55 39v78l-67.55 39L0 156V78zM0 156l67.55 39v78L0 312l-67.55-39v-78zM135.1-78l67.56 39v78L135.1 78 67.55 39v-78zm67.56 117 67.55 39v78l-67.55 39-67.56-39V78zM135.1 156l67.56 39v78l-67.56 39-67.55-39v-78z"/>
    <path stroke="rgba(15, 16, 28, 1)" d="M67.39 65.63 115.03 93.13 115.03 148.13 67.39 175.63 19.76 148.13 19.76 93.13z"/>
  </g>
</svg>