<svg xmlns="http://www.w3.org/2000/svg" width="1440" height="560" preserveAspectRatio="none">
  <g fill="none" stroke-width="2" mask="url(&quot;#a&quot;)">
    <path stroke="rgba(5, 5, 9, 1)" d="m0-75 64.95 37.5v75L0 75l-64.95-37.5v-75zM64.95 37.5 129.91 75v75l-64.96 37.5L0 150V75zM0 150l64.95 37.5v75L0 300l-64.95-37.5v-75zm64.95 112.5 64.96 37.5v75l-64.96 37.5L0 375v-75zM0 375l64.95 37.5v75L0 525l-64.95-37.5v-75zm64.95 112.5 64.96 37.5v75l-64.96 37.5L0 600v-75zM129.91-75l64.95 37.5v75L129.91 75 64.95 37.5v-75zm64.95 112.5L259.81 75v75l-64.95 37.5-64.95-37.5V75zM129.91 150l64.95 37.5v75L129.91 300l-64.96-37.5v-75zm64.95 112.5 64.95 37.5v75l-64.95 37.5-64.95-37.5v-75zM129.91 375l64.95 37.5v75L129.91 525l-64.96-37.5v-75zm64.95 112.5 64.95 37.5v75l-64.95 37.5-64.95-37.5v-75zM259.81-75l64.96 37.5v75L259.81 75l-64.95-37.5v-75zm64.96 112.5L389.72 75v75l-64.95 37.5-64.96-37.5V75zM259.81 150l64.96 37.5v75L259.81 300l-64.95-37.5v-75zm64.96 112.5 64.95 37.5v75l-64.95 37.5-64.96-37.5v-75zM259.81 375l64.96 37.5v75L259.81 525l-64.95-37.5v-75zm64.96 112.5 64.95 37.5v75l-64.95 37.5-64.96-37.5v-75zM389.72-75l64.96 37.5v75L389.72 75l-64.95-37.5v-75zm64.96 112.5L519.63 75v75l-64.95 37.5-64.96-37.5V75zM389.72 150l64.96 37.5v75L389.72 300l-64.95-37.5v-75zm64.96 112.5 64.95 37.5v75l-64.95 37.5-64.96-37.5v-75zM389.72 375l64.96 37.5v75L389.72 525l-64.95-37.5v-75zm64.96 112.5 64.95 37.5v75l-64.95 37.5-64.96-37.5v-75zM519.63-75l64.95 37.5v75L519.63 75l-64.95-37.5v-75zm64.95 112.5L649.54 75v75l-64.96 37.5-64.95-37.5V75zM519.63 150l64.95 37.5v75L519.63 300l-64.95-37.5v-75zm64.95 112.5 64.96 37.5v75l-64.96 37.5-64.95-37.5v-75zM519.63 375l64.95 37.5v75L519.63 525l-64.95-37.5v-75zm64.95 112.5 64.96 37.5v75l-64.96 37.5-64.95-37.5v-75zM649.54-75l64.95 37.5v75L649.54 75l-64.96-37.5v-75zm64.95 112.5L779.45 75v75l-64.96 37.5-64.95-37.5V75zM649.54 150l64.95 37.5v75L649.54 300l-64.96-37.5v-75zm64.95 112.5 64.96 37.5v75l-64.96 37.5-64.95-37.5v-75zM649.54 375l64.95 37.5v75L649.54 525l-64.96-37.5v-75zm64.95 112.5 64.96 37.5v75l-64.96 37.5-64.95-37.5v-75zM779.44-75l64.96 37.5v75L779.44 75l-64.95-37.5v-75zM844.4 37.5 909.35 75v75l-64.95 37.5-64.96-37.5V75zM779.44 150l64.96 37.5v75L779.44 300l-64.95-37.5v-75zm64.96 112.5 64.95 37.5v75l-64.95 37.5-64.96-37.5v-75zM779.44 375l64.96 37.5v75L779.44 525l-64.95-37.5v-75zm64.96 112.5 64.95 37.5v75l-64.95 37.5-64.96-37.5v-75zM909.35-75l64.96 37.5v75L909.35 75 844.4 37.5v-75zm64.96 112.5 64.95 37.5v75l-64.95 37.5-64.96-37.5V75zM909.35 150l64.96 37.5v75L909.35 300l-64.95-37.5v-75zm64.96 112.5 64.95 37.5v75l-64.95 37.5-64.96-37.5v-75zM909.35 375l64.96 37.5v75L909.35 525l-64.95-37.5v-75zm64.96 112.5 64.95 37.5v75l-64.95 37.5-64.96-37.5v-75zM1039.26-75l64.95 37.5v75L1039.26 75l-64.95-37.5v-75zm64.95 112.5 64.96 37.5v75l-64.96 37.5-64.95-37.5V75zM1039.26 150l64.95 37.5v75l-64.95 37.5-64.95-37.5v-75zm64.95 112.5 64.96 37.5v75l-64.96 37.5-64.95-37.5v-75zM1039.26 375l64.95 37.5v75l-64.95 37.5-64.95-37.5v-75zm64.95 112.5 64.96 37.5v75l-64.96 37.5-64.95-37.5v-75zM1169.17-75l64.95 37.5v75L1169.17 75l-64.96-37.5v-75zm64.95 112.5 64.95 37.5v75l-64.95 37.5-64.95-37.5V75zM1169.17 150l64.95 37.5v75l-64.95 37.5-64.96-37.5v-75zm64.95 112.5 64.95 37.5v75l-64.95 37.5-64.95-37.5v-75zM1169.17 375l64.95 37.5v75l-64.95 37.5-64.96-37.5v-75zm64.95 112.5 64.95 37.5v75l-64.95 37.5-64.95-37.5v-75zM1299.08-75l64.95 37.5v75L1299.08 75l-64.96-37.5v-75zm64.95 112.5 64.95 37.5v75l-64.95 37.5-64.95-37.5V75zM1299.08 150l64.95 37.5v75l-64.95 37.5-64.96-37.5v-75zm64.95 112.5 64.95 37.5v75l-64.95 37.5-64.95-37.5v-75zM1299.08 375l64.95 37.5v75l-64.95 37.5-64.96-37.5v-75zm64.95 112.5 64.95 37.5v75l-64.95 37.5-64.95-37.5v-75zM1428.98-75l64.96 37.5v75L1428.98 75l-64.95-37.5v-75zm64.96 112.5 64.95 37.5v75l-64.95 37.5-64.96-37.5V75zM1428.98 150l64.96 37.5v75l-64.96 37.5-64.95-37.5v-75zm64.96 112.5 64.95 37.5v75l-64.95 37.5-64.96-37.5v-75zM1428.98 375l64.96 37.5v75l-64.96 37.5-64.95-37.5v-75zm64.96 112.5 64.95 37.5v75l-64.95 37.5-64.96-37.5v-75z"/>
    <path stroke="rgba(15, 16, 28, 1)" d="m80 347.12 40.71 23.5v47L80 441.12l-40.7-23.5v-47zm122.12-70.5 40.7 23.5v47l-40.7 23.5-40.71-23.5v-47zm40.7 70.5 40.71 23.5v47l-40.71 23.5-40.7-23.5v-47zm-40.7 211.5 40.7 23.5v47l-40.7 23.5-40.71-23.5v-47zm122.11-493.5 40.7 23.5v47l-40.7 23.5-40.7-23.5v-47zm40.7 352.5 40.71 23.5v47l-40.71 23.5-40.7-23.5v-47zm122.12-352.5 40.7 23.5v47l-40.7 23.5-40.71-23.5v-47zm122.11-70.5 40.71 23.5v47l-40.71 23.5-40.7-23.5v-47zm122.11 352.5 40.71 23.5v47l-40.71 23.5-40.7-23.5v-47zm40.71 70.5 40.7 23.5v47l-40.7 23.5-40.71-23.5v-47zm81.41-141 40.7 23.5v47l-40.7 23.5-40.71-23.5v-47zm81.41-282 40.7 23.5v47l-40.7 23.5-40.71-23.5v-47zm40.7 70.5 40.7 23.5v47l-40.7 23.5-40.7-23.5v-47zm0 282 40.7 23.5v47l-40.7 23.5-40.7-23.5v-47zm-40.7 211.5 40.7 23.5v47l-40.7 23.5-40.71-23.5v-47zm81.4-423 40.71 23.5v47l-40.71 23.5-40.7-23.5v-47zm122.12-70.5 40.7 23.5v47l-40.7 23.5-40.71-23.5v-47zm0 141 40.7 23.5v47l-40.7 23.5-40.71-23.5v-47zm40.7-70.5 40.71 23.5v47l-40.71 23.5-40.7-23.5v-47zm40.71 70.5 40.7 23.5v47l-40.7 23.5-40.71-23.5v-47zm40.7-211.5 40.7 23.5v47l-40.7 23.5-40.7-23.5v-47zm40.7 352.5 40.71 23.5v47l-40.71 23.5-40.7-23.5v-47zm-40.7 70.5 40.7 23.5v47l-40.7 23.5-40.7-23.5v-47zm0 141 40.7 23.5v47l-40.7 23.5-40.7-23.5v-47zm81.41-423 40.7 23.5v47l-40.7 23.5-40.71-23.5v-47zm81.41 141 40.7 23.5v47l-40.7 23.5-40.71-23.5v-47zm40.7 70.5 40.71 23.5v47l-40.71 23.5-40.7-23.5v-47z"/>
  </g>
  <defs>
    <mask id="a">
      <path fill="#fff" d="M0 0h1440v560H0z"/>
    </mask>
  </defs>
</svg>