<svg class="{{ . }}" viewBox="0 0 60 60">
  <path d="M12 58h36a1 1 0 0 0 1-1v-5H12a3 3 0 0 0 0 6zm26-4h5a1 1 0 0 1 0 2h-5a1 1 0 0 1 0-2zm-22 0h18a1 1 0 0 1 0 2H16a1 1 0 0 1 0-2z"/>
  <circle cx="24" cy="18" r="1"/>
  <path d="M30 43a17 17 0 1 0-17-17 17.019 17.019 0 0 0 17 17zm7.707-7.293a1 1 0 0 1-1.414 0l-1-1a1 1 0 0 1 1.414-1.414l1 1a1 1 0 0 1 0 1.414zM16 24a3 3 0 1 1 4.449 2.61L21.01 30a2.967 2.967 0 0 1 1.847.661l3.217-2.015a2.955 2.955 0 0 1 .772-2.727l-2.486-4.955A3.048 3.048 0 0 1 24 21a3 3 0 0 1 0-6 2.972 2.972 0 0 1 1.948.737l2.106-1.208a3.032 3.032 0 1 1 1 1.734l-2.106 1.208a2.908 2.908 0 0 1-.792 2.609l2.486 4.956A3.048 3.048 0 0 1 29 25a3 3 0 0 1 2.718 1.749l5.386-.491a3 3 0 0 1 1.596-1.947l-.38-3.4a3.009 3.009 0 1 1 1.988-.225l.38 3.4a3 3 0 1 1-3.4 4.164l-5.386.492a2.97 2.97 0 0 1-4.753 1.6l-3.217 2.015A3 3 0 0 1 24 33a2.941 2.941 0 0 1-.056.551l1.887 1.1A2.992 2.992 0 1 1 25 36.714c0-.075.017-.145.022-.219l-2.089-1.22A2.971 2.971 0 0 1 21 36a2.987 2.987 0 0 1-1.9-5.3l-.62-3.751A3 3 0 0 1 16 24zm17.707-1.293a1 1 0 0 1-1.414 0l-1-1a1 1 0 0 1 1.414-1.414l1 1a1 1 0 0 1 0 1.414z"/>
  <circle cx="29" cy="28" r="1"/>
  <circle cx="19" cy="24" r="1"/>
  <circle cx="21" cy="33" r="1"/>
  <circle cx="31" cy="14" r="1"/>
  <circle cx="28" cy="36.714" r="1"/>
  <circle cx="40" cy="27" r="1"/>
  <circle cx="39" cy="18" r="1"/>
  <path d="M9 5v46a4.973 4.973 0 0 1 3-1h38a1 1 0 0 0 1-1V3a1 1 0 0 0-1-1H12a3 3 0 0 0-3 3zm21 2a19 19 0 1 1-19 19A19.021 19.021 0 0 1 30 7z"/>
</svg>
