<svg class="{{ . }}" viewBox="0 0 512 512">
  <path d="m382.32 271.858-113.213-13.32c19.648 21.328 40.993 46.704 47.271 54.219l99.544 21.331c-9.783-20.123-20.955-41.13-33.602-62.23zm41.015 80.115-81.814-6.818.441.883 101.56 50.78a923.981 923.981 0 0 0-19.147-44.833 8.225 8.225 0 0 1-1.04-.012zM456 313.46c-5.795-15.266-19.833-49.412-31.188-67.265l-17.952 29.921a7.952 7.952 0 0 1-2.15 2.343c21.565 37.861 38.497 74.855 51.29 106.508zm-62.325-53.752 5.981-41.866c-2.828-4.387-5.333-8.467-7.77-12.433-6.238-10.156-11.822-19.249-20.652-29.813l-11.216 33.647c9.884 13.485 19.479 27.659 28.766 42.517a741.033 741.033 0 0 1 4.891 7.948zm-95.523-122.115-9.104-36.414c-29.446-17.271-62.511-30.907-98.987-40.889 20.062 9.789 39.546 21.533 58.395 35.241 17.092 12.43 33.671 26.476 49.696 42.062zm-16.106 6.453c-.746.186-110.769-5.521-143.567-7.143 6.596 7.991 13.488 17.005 18.221 23.794l168.188 29.25c-13.867-16.794-28.074-31.912-42.842-45.901zm-173.518-39.502 152.762 20.831C197.997 72.429 126.998 43.972 48.92 40.397c-1.224-.038-2.44-.086-3.669-.119 19.166 17.424 50.246 46.639 63.277 64.266zM344 147.58c-4.445-3.934-13.967-12.201-24-19.928V160c0 .059-.007.116-.008.174A573.79 573.79 0 0 1 344 188.307zm-140.963 47.163c13.554 11.403 26.54 23.652 32.917 29.914l134.687 28.355c-10.31-16.083-20.267-30.397-31.175-44.672-1.119.422-136.429-13.597-136.429-13.597zM488 480c0 4.42-3.58 8-8 8-3.75 0-6.89-2.58-7.75-6.06h-.01c-.13-.53-6.47-25.4-20.28-63.01l8.46 4.23c1.13.56 2.36.84 3.58.84 1.46 0 2.92-.4 4.21-1.19.62-.39 1.18-.85 1.66-1.38 12.15 34.06 17.77 56.14 17.89 56.63h-.01c.16.62.25 1.27.25 1.94z"/>
</svg>