<svg class="{{ . }}" viewBox="0 0 512 512">
  <path d="M498.348 231.102c12.382-12.07 16.754-29.79 11.41-46.235-5.344-16.449-19.297-28.21-36.41-30.699l-114.38-16.617a15.1 15.1 0 0 1-11.37-8.266l-51.153-103.64C288.793 10.133 273.293.5 256 .5c-17.297 0-32.793 9.633-40.45 25.145l-51.148 103.64a15.1 15.1 0 0 1-11.37 8.266l-114.38 16.617c-17.113 2.488-31.066 14.25-36.41 30.7-5.344 16.445-.972 34.163 11.414 46.234l82.762 80.675a15.091 15.091 0 0 1 4.344 13.371l-19.54 113.914c-2.921 17.047 3.954 33.95 17.946 44.118 7.906 5.742 17.156 8.66 26.469 8.66 7.168 0 14.375-1.727 21.031-5.227l102.305-53.785a15.104 15.104 0 0 1 14.054 0l102.305 53.785c15.309 8.047 33.508 6.73 47.5-3.433 13.992-10.164 20.867-27.07 17.941-44.114l-19.535-113.918a15.095 15.095 0 0 1 4.344-13.37zM197.91 290.32l10.36 7.91c13.632 10.407 30.582 16.137 47.73 16.137s34.098-5.73 47.73-16.137l10.364-7.91c6.586-5.027 15.996-3.765 21.023 2.82 5.028 6.583 3.766 15.997-2.82 21.024l-10.363 7.914c-18.829 14.375-42.243 22.29-65.934 22.29s-47.105-7.915-65.934-22.29l-10.363-7.91c-6.582-5.027-7.848-14.441-2.82-21.027 5.027-6.586 14.441-7.848 21.027-2.82zm-12.117-66.82c0-11.54 9.355-20.898 20.894-20.898 11.543 0 20.899 9.355 20.899 20.898 0 11.54-9.356 20.895-20.899 20.895-11.539 0-20.894-9.356-20.894-20.895zm98.621 0c0-11.54 9.356-20.898 20.895-20.898 11.543 0 20.898 9.355 20.898 20.898 0 11.54-9.355 20.895-20.898 20.895-11.54 0-20.895-9.356-20.895-20.895zm0 0"/>
</svg>