<svg class="{{ . }}" viewBox="0 0 64 64">
  <path d="M18 32a14 14 0 0 1 .346-3.056L7.212 31.728a.28.28 0 0 0 0 .544l11.133 2.784A13.99 13.99 0 0 1 18 32zm1.1-5.424-3.56-5.933a19.89 19.89 0 0 0-3.209 7.745l6.72-1.68c.013-.043.025-.089.049-.132zm1.089 12.909-5.909 9.85a.281.281 0 0 0 .385.385l9.85-5.909a14.1 14.1 0 0 1-4.326-4.326zm4.325-19.295-9.849-5.91a.281.281 0 0 0-.385.385l5.91 9.849a14.081 14.081 0 0 1 4.324-4.324zm-5.42 17.233c-.018-.043-.03-.088-.048-.131l-6.72-1.68a19.9 19.9 0 0 0 3.209 7.744zm18.329-18.329 5.933-3.559a19.885 19.885 0 0 0-7.744-3.209l1.68 6.72c.043.018.089.03.131.048zm-10.715-.048 1.68-6.72a19.885 19.885 0 0 0-7.744 3.209l5.933 3.559c.042-.018.088-.03.131-.048zm17.103 5.469 5.909-9.85a.281.281 0 0 0-.385-.385l-9.849 5.91a14.1 14.1 0 0 1 4.325 4.325zm1.095 2.062c.018.043.03.088.048.131l6.72 1.68a19.879 19.879 0 0 0-3.209-7.744zm-9.85-8.231L32.272 7.213a.291.291 0 0 0-.544 0l-2.784 11.133a13.669 13.669 0 0 1 6.112 0zm-8.479 26.56-5.933 3.559a19.894 19.894 0 0 0 7.744 3.209l-1.68-6.72c-.043-.018-.088-.03-.131-.048zm18.329-7.483 3.559 5.933a19.894 19.894 0 0 0 3.209-7.744l-6.72 1.68c-.018.043-.03.088-.048.131zm-5.421 6.388 9.85 5.909a.281.281 0 0 0 .385-.385l-5.909-9.85a14.1 14.1 0 0 1-4.326 4.326z"/>
  <path d="M32 3a29 29 0 1 0 29 29A29.033 29.033 0 0 0 32 3zm25.273 31.212-3.5.876a21.884 21.884 0 0 1-4.196 10.122l1.858 3.1a2.28 2.28 0 0 1-3.129 3.129l-3.1-1.858a21.883 21.883 0 0 1-10.123 4.194l-.875 3.5a2.28 2.28 0 0 1-4.424 0l-.876-3.5a21.884 21.884 0 0 1-10.118-4.198l-3.1 1.858a2.281 2.281 0 0 1-3.129-3.129l1.858-3.1a21.883 21.883 0 0 1-4.194-10.123l-3.5-.875a2.281 2.281 0 0 1 0-4.425l3.5-.875a21.867 21.867 0 0 1 4.198-10.118l-1.858-3.1a2.281 2.281 0 0 1 3.129-3.129l3.1 1.858a21.867 21.867 0 0 1 10.122-4.194l.876-3.5a2.28 2.28 0 0 1 4.424 0l.876 3.5a21.867 21.867 0 0 1 10.118 4.198l3.1-1.858a2.281 2.281 0 0 1 3.129 3.13l-1.858 3.1a21.871 21.871 0 0 1 4.194 10.121l3.5.875a2.281 2.281 0 0 1 0 4.425z"/>
  <path d="m56.787 31.728-11.133-2.784a13.673 13.673 0 0 1 0 6.113l11.134-2.785a.28.28 0 0 0 0-.544zM28.943 45.654l2.785 11.134a.291.291 0 0 0 .544 0l2.785-11.133a13.678 13.678 0 0 1-6.114 0z"/>
  <circle cx="32" cy="32" r="12"/>
  <path d="m37.292 44.954-1.68 6.72a19.9 19.9 0 0 0 7.744-3.209l-5.933-3.559c-.043.018-.088.03-.131.048z"/>
</svg>