<svg class="{{ . }}" viewBox="0 0 512 512">
  <path d="M264 408a8 8 0 1 1-8-8 8.009 8.009 0 0 1 8 8Zm-8-128a24 24 0 1 0-24-24 24.028 24.028 0 0 0 24 24ZM144.049 416.964 104.8 397.348a15.846 15.846 0 0 1-14.1 1.73l-10.16 8.709A232.883 232.883 0 0 0 152 463.424v-33.589a15.993 15.993 0 0 1-7.951-12.871Zm-63.767-30.03-9.793 8.395a231.636 231.636 0 0 1-30.164-53.692 15.922 15.922 0 0 0 5.486-21.677L64.07 288A15.984 15.984 0 0 0 72 258.165v-36.33a16 16 0 1 0-16 0v36.33a15.93 15.93 0 0 0-5.811 21.875L31.93 312c-.369 0-.731.033-1.094.059a232.355 232.355 0 0 1 37.751-192.808l27.6 11.04a15.987 15.987 0 1 0 31.535-5.225L162.7 95.078a15.992 15.992 0 1 0-.982-29.789L144.6 52.454a232.079 232.079 0 0 1 270.24 34.472l-2.729 9.574a16.04 16.04 0 0 0-9.946 7.5h-12.33a15.917 15.917 0 0 0-19.643-6.892L351.8 82.4a16.036 16.036 0 1 0-9.993 12.5l18.393 14.705A15.977 15.977 0 0 0 389.835 120h12.33a15.985 15.985 0 1 0 25.33-19.1l.249-.874a231.765 231.765 0 0 1 48.96 84.322 15.98 15.98 0 0 0-10.053 24.452l-19.616 39.249a16 16 0 1 0 14.314 7.151l19.616-39.249a15.91 15.91 0 0 0 3.478-.614A232.338 232.338 0 0 1 411.1 428.518a15.807 15.807 0 0 0-15.231-3.959l-12.432-12.432a16.076 16.076 0 1 0-11.314 11.314l12.432 12.432a15.778 15.778 0 0 0 1.628 12.177A232.338 232.338 0 0 1 174.5 473.263a16.132 16.132 0 0 0-6.5-7.1v-36.33a15.986 15.986 0 1 0-16.8-27.183l-39.248-19.616a15.988 15.988 0 1 0-31.669 3.9Zm323.158-39.148-5.856-21.857a8 8 0 0 0-9.8-5.657l-21.856 5.857A8 8 0 0 0 364 340.785l5.856 3.381a143.6 143.6 0 0 1-91.9 54.162 23.988 23.988 0 0 0-43.916.005 143.773 143.773 0 0 1-84.147-44.983l-11.788 10.82a159.748 159.748 0 0 0 94.747 50.158 24 24 0 0 0 46.3-.006 159.573 159.573 0 0 0 104.672-62.092l7.889 4.555a8 8 0 0 0 11.727-9ZM168 248v16h32v-16Zm20.117-48.569 11.315-11.313-11.314-11.318-11.318 11.318ZM176.8 323.882l11.318 11.318 11.314-11.314-11.315-11.313ZM264 344v-32h-16v32Zm48-96v16h32v-16Zm23.2-59.882L323.882 176.8l-11.314 11.314 11.315 11.313Zm-11.317 124.451-11.315 11.313 11.314 11.318 11.318-11.318Zm-81.54-202.912 16 16A8 8 0 0 0 272 120v-7.115a143.273 143.273 0 0 1 96.272 52.948 24.02 24.02 0 0 0 19.4 38.177 23.612 23.612 0 0 0 2.592-.153 144.657 144.657 0 0 1 2.157 98.365l15.152 5.136a160.576 160.576 0 0 0-2.873-110.491 24 24 0 0 0-23.184-40.079A159.2 159.2 0 0 0 272 96.807V88a8 8 0 0 0-13.657-5.657l-16 16a8 8 0 0 0 0 11.314ZM248 168v32h16v-32Zm-14.042 54.644-23.213-23.212-11.314 11.313 23.213 23.213a39.885 39.885 0 0 0 0 44.084l-23.213 23.213 11.314 11.313 23.213-23.212a39.885 39.885 0 0 0 44.084 0l23.213 23.212 11.314-11.313-23.213-23.213a39.885 39.885 0 0 0 0-44.084l23.213-23.213-11.314-11.313-23.213 23.212a39.885 39.885 0 0 0-44.084 0ZM96 256a160.306 160.306 0 0 0 16.376 70.545l-8.089 4.67a8 8 0 0 0 1.93 14.656l21.856 5.857a7.994 7.994 0 0 0 9.8-5.657l5.857-21.857a8 8 0 0 0-11.728-9l-5.74 3.314a144.326 144.326 0 0 1-4.521-114.671 23.736 23.736 0 0 0 2.586.152 24.137 24.137 0 0 0 6.251-.828 23.992 23.992 0 0 0 13.15-37.352 143.664 143.664 0 0 1 81.951-50.638l-3.354-15.644a159.648 159.648 0 0 0-91.843 57.24 24 24 0 0 0-23.182 40.086A158.728 158.728 0 0 0 96 256Zm16-176a16.019 16.019 0 0 1-16 16 15.844 15.844 0 0 1-6.595-1.441q-5.44 5.613-10.5 11.587l23.22 9.289a15.839 15.839 0 0 1 15.175-2.513l34.981-29.988a15.075 15.075 0 0 1-.157-4.84l-22.353-16.766q-9.664 6.28-18.644 13.475A15.921 15.921 0 0 1 112 80ZM57.944 97.76l26.574-6.643a16.1 16.1 0 0 0 4.887 3.442A233.368 233.368 0 0 1 111.127 74.8a16.058 16.058 0 0 0-4.956-7.145l3.442-20.694c.223-.084.451-.159.67-.253l19.488 14.617q7.238-4.7 14.834-8.874l-24.73-18.548a15.995 15.995 0 1 0-26.046 10.439l-3.442 20.694A16.048 16.048 0 0 0 80.631 75.6l-37.149 9.283a16 16 0 1 0-1.608 23.682l26.713 10.686q4.927-6.741 10.319-13.105Zm369.8 2.263 8.145-28.523a16.04 16.04 0 0 0 9.946-7.5h20.33a16 16 0 1 0 0-16h-20.33a15.985 15.985 0 1 0-25.33 19.1l-5.66 19.823q6.701 6.3 12.899 13.1ZM391.877 453.76l-.112 12.548a15.987 15.987 0 1 0 16-.284l.108-12.114a16.1 16.1 0 0 0 5.958-5.91h28.33a16 16 0 1 0 0-16h-28.33a16.111 16.111 0 0 0-2.731-3.482 233 233 0 0 1-24.917 19.532 16.152 16.152 0 0 0 5.694 5.71ZM152 466.165a16.008 16.008 0 1 0 22.5 7.1 230.561 230.561 0 0 1-22.5-9.839ZM56 432a15.948 15.948 0 0 0-.282-2.934l24.822-21.279q-5.236-6.048-10.051-12.458L45.3 416.922A15.989 15.989 0 1 0 56 432ZM16 328a15.966 15.966 0 0 0 24.325 13.637 230.123 230.123 0 0 1-9.489-29.574A16.007 16.007 0 0 0 16 328Zm480-128a15.992 15.992 0 0 0-19.3-15.655 230.107 230.107 0 0 1 7.739 30.992A16 16 0 0 0 496 200Zm-371.75-12.5a8 8 0 1 0-8-8 8 8 0 0 0 8 8Zm263.219.2a8 8 0 1 0-8-8 8 8 0 0 0 8 8Z"/>
</svg>