<svg class="{{ . }}" viewBox="0 0 42 58">
  <path d="M14.17 28.754a1 1 0 0 1 1.42-1.408 14.421 14.421 0 0 0 6.084 3.178c.78.313 1.612.479 2.453.488a1.435 1.435 0 0 0 1.243-.97 7.442 7.442 0 0 0 .293-2.106 5.1 5.1 0 0 1 .886-3.289c.42-.479.95-.848 1.545-1.076.651-.24.881-.487.907-.553a9.788 9.788 0 0 0-.7-1.051 8.909 8.909 0 0 1-1.82-3.679 10.567 10.567 0 0 1 .134-3.205c.18-.948.23-1.916.151-2.878a13.8 13.8 0 0 1-4.185 4.608 45.16 45.16 0 0 1-5.152 3.044c-5.747 3.06-9.9 5.285-6.615 13.471a15.962 15.962 0 0 0 6.065 3.114 8.086 8.086 0 0 1 .3-5.543 11.851 11.851 0 0 1-3.009-2.145z"/>
  <path d="M28.251 6.756c-.029.824-.14 1.642-.334 2.443a9.522 9.522 0 0 1 .677 6.176 8.913 8.913 0 0 0-.135 2.615 7.442 7.442 0 0 0 1.47 2.815 4.841 4.841 0 0 1 1.054 1.995c.08.657-.1 1.876-2.227 2.659a2.025 2.025 0 0 0-.735.543 4.51 4.51 0 0 0-.361 2.038 8.728 8.728 0 0 1-.43 2.738 3.407 3.407 0 0 1-2.959 2.23 4.664 4.664 0 0 1-.353.013 9.283 9.283 0 0 1-2.841-.587A29.841 29.841 0 0 1 19 31.717a6.168 6.168 0 0 0 .189 5.173 15.985 15.985 0 0 0 9.062-30.134zM16.49 18.092a43.936 43.936 0 0 0 4.928-2.9 11.079 11.079 0 0 0 4.487-6.13c.282-1.029.4-2.096.346-3.162A15.982 15.982 0 0 0 7.779 30c-1.019-6.728 3.914-9.355 8.711-11.908z"/>
  <path d="M23.881 41.8c10.933-1.514 18.828-11.234 18.07-22.245C41.19 8.543 32.037-.001 21-.001S.809 8.543.05 19.555 7.186 40.285 18.119 41.8a1 1 0 0 1 .881.987V48h-7a1 1 0 0 0-1 1v2a1 1 0 0 0 1 1h7v5a1 1 0 0 0 1 1h2a1 1 0 0 0 1-1v-5h7a1 1 0 0 0 1-1v-2a1 1 0 0 0-1-1h-7v-5.214a1 1 0 0 1 .881-.986zM21 39c-9.941 0-18-8.059-18-18S11.059 3 21 3s18 8.059 18 18c-.012 9.936-8.064 17.988-18 18z"/>
</svg>